<svg width="17" height="12" viewBox="0 0 17 12" fill="none" xmlns="http://www.w3.org/2000/svg">
<path d="M16.1142 5.9414L16.1143 5.94168L16.1462 6.00025L16.1144 6.05878C14.5319 8.96792 11.6062 10.75 8.5 10.75C5.39365 10.75 2.46796 8.96776 0.885708 6.05893C0.885684 6.05889 0.885659 6.05884 0.885634 6.05879L0.853633 5.99993L0.885415 5.94145C2.46806 3.03206 5.39362 1.25 8.5 1.25C11.6062 1.25 14.5319 3.03227 16.1142 5.9414Z" stroke="#8D8399" stroke-width="1.5"/>
<path d="M10.75 6C10.75 7.24264 9.74264 8.25 8.5 8.25C7.25736 8.25 6.25 7.24264 6.25 6C6.25 4.75736 7.25736 3.75 8.5 3.75C9.74264 3.75 10.75 4.75736 10.75 6Z" stroke="#8D8399" stroke-width="1.5"/>
</svg>
