<svg width="18" height="25" viewBox="0 0 18 25" fill="none" xmlns="http://www.w3.org/2000/svg">
<path d="M0 22H18V25H0V22Z" fill="#D6CBE2"/>
<path d="M7.25265 16.8555V6.81341C7.25265 6.81341 4.63127 10.0738 3.77905 10.8162C2.92683 11.5586 1.08916 9.89827 1.72208 8.77638C2.11134 8.08638 4.23668 4.7953 5.64011 2.98907C7.04353 1.18285 7.50112 0.821585 8.08081 0.309806C8.66051 -0.201973 9.57574 0.00866675 9.97238 0.309749L9.98809 0.321675C10.3839 0.621999 10.9501 1.05156 12.4131 2.98907C13.9015 4.96016 15.5814 7.56698 16.3325 8.77638C17.0836 9.98579 15.0381 11.4382 14.2536 10.8162C13.4692 10.1942 10.8115 6.81341 10.8115 6.81341V16.8555C10.8115 18.1918 7.25265 18.1683 7.25265 16.8555Z" fill="#D6CBE2"/>
</svg>
