<svg width="114" height="58" viewBox="0 0 114 58" fill="none" xmlns="http://www.w3.org/2000/svg">
<g clip-path="url(#clip0_302_10)">
<path fill-rule="evenodd" clip-rule="evenodd" d="M35.9427 45.7683L39.789 22.4961C39.789 22.4961 41.1803 19.8795 43.8303 20.3175C46.4802 20.7554 47.0957 23.7037 47.0957 23.7037L43.2494 46.9759C43.2494 46.9759 41.3022 45.8841 39.6553 45.5784C38.0085 45.2727 35.9427 45.7683 35.9427 45.7683Z" fill="white"/>
<path fill-rule="evenodd" clip-rule="evenodd" d="M37.7126 57.1569C37.7126 57.1569 37.8203 57.0894 38.0052 56.9688C38.0058 56.9684 38.0064 56.968 38.007 56.9676C38.1156 56.8968 38.2506 56.8078 38.4058 56.7035C38.3633 56.7134 38.322 56.7227 38.2819 56.7312C39.5571 55.7777 40.5537 55.0325 41.3327 54.4502M37.3836 56.6316C36.8046 55.7074 36.3112 54.9198 35.8906 54.2485C35.7012 53.9461 35.5265 53.6672 35.3654 53.4102C35.2658 53.2512 35.1714 53.1005 35.082 52.9577C34.5264 51.2855 35.6794 49.6071 36.0158 49.2034C36.112 49.0878 36.2689 49.0023 36.471 48.943C37.7052 48.5807 40.6257 49.1939 41.7179 49.9071C41.8803 50.0132 42.0023 50.1214 42.0723 50.2291C42.3419 50.6436 42.81 52.6054 41.7813 54.0062C41.7076 54.1065 41.6263 54.2039 41.5367 54.2976C41.4704 54.3472 41.4024 54.398 41.3327 54.4502M37.3836 56.6316C37.3563 56.6143 37.3241 56.5935 37.2876 56.5691ZM37.2876 56.5691C37.3582 56.6689 37.422 56.758 37.4773 56.8348C37.4816 56.8407 37.4858 56.8465 37.4899 56.8522C37.6297 57.0461 37.7126 57.1569 37.7126 57.1569" fill="white"/>
<path d="M35.5401 12.373L29.8654 46.5548H23.6232L12.3572 25.0409H12.0902L8.50174 46.5548H1.27482L6.94954 12.373H13.2919L24.5078 33.8701H24.7915L28.3466 12.373H35.5401Z" fill="white"/>
<path d="M66.2659 20.9184L65.3813 26.2593H49.926L50.8273 20.9184H66.2659ZM55.3337 14.7764H62.4438L58.4715 38.6769C58.3602 39.3334 58.3769 39.8453 58.5215 40.2124C58.6662 40.5685 58.9054 40.8189 59.2392 40.9635C59.5842 41.1082 59.9959 41.1805 60.4743 41.1805C60.8081 41.1805 61.1475 41.1527 61.4924 41.097C61.8374 41.0303 62.0988 40.9802 62.2769 40.9468L62.5439 46.2377C62.1433 46.3601 61.6037 46.4936 60.9249 46.6382C60.2573 46.7829 59.4673 46.8719 58.5549 46.9053C56.8191 46.972 55.3504 46.7439 54.1487 46.221C52.947 45.6869 52.0846 44.8691 51.5617 43.7675C51.0387 42.6659 50.9274 41.2806 51.2279 39.6116L55.3337 14.7764ZM66.6247 46.5548L70.8974 20.9184H77.7905L77.0395 25.3914H77.3065C78.0409 23.8003 79.0256 22.5986 80.2607 21.7863C81.5069 20.9629 82.8477 20.5512 84.2831 20.5512C84.6391 20.5512 85.0119 20.5735 85.4013 20.618C85.8019 20.6514 86.158 20.707 86.4695 20.7849L85.4013 27.1105C85.0898 26.9993 84.6447 26.9102 84.0661 26.8435C83.4986 26.7656 82.959 26.7267 82.4471 26.7267C81.4123 26.7267 80.4499 26.9548 79.5597 27.411C78.6696 27.856 77.9185 28.4791 77.3065 29.2803C76.7057 30.0814 76.3107 31.0049 76.1215 32.0509L73.7348 46.5548H66.6247ZM96.2793 47.0555C93.6644 47.0555 91.5003 46.4991 89.7867 45.3865C88.0732 44.2626 86.8659 42.7049 86.1649 40.7132C85.475 38.7103 85.3471 36.3792 85.781 33.7199C86.2039 31.094 87.0829 28.7963 88.4181 26.8268C89.7533 24.8573 91.4502 23.3274 93.5087 22.237C95.5671 21.1354 97.8871 20.5846 100.469 20.5846C103.072 20.5846 105.231 21.1465 106.944 22.2703C108.658 23.383 109.865 24.9408 110.566 26.9436C111.267 28.9465 111.401 31.2776 110.967 33.9369C110.533 36.5517 109.643 38.8438 108.296 40.8133C106.95 42.7828 105.253 44.3183 103.206 45.4198C101.158 46.5103 98.8496 47.0555 96.2793 47.0555ZM96.9803 41.5477C98.182 41.5477 99.2446 41.2083 100.168 40.5296C101.103 39.8397 101.876 38.905 102.488 37.7256C103.111 36.535 103.545 35.1887 103.79 33.6865C104.035 32.2066 104.051 30.8937 103.84 29.7476C103.629 28.5904 103.184 27.678 102.505 27.0104C101.837 26.3428 100.919 26.009 99.7509 26.009C98.5492 26.009 97.481 26.3539 96.5463 27.0438C95.6117 27.7225 94.8383 28.6572 94.2264 29.8477C93.6144 31.0383 93.186 32.3902 92.9412 33.9035C92.7075 35.3723 92.6908 36.6852 92.8911 37.8424C93.0914 38.9885 93.5309 39.8953 94.2097 40.5629C94.8884 41.2194 95.8119 41.5477 96.9803 41.5477Z" fill="white"/>
</g>
<defs>
<clipPath id="clip0_302_10">
<rect width="113" height="57.4452" fill="white" transform="translate(0.221069 0.554779)"/>
</clipPath>
</defs>
</svg>
