<svg width="14" height="14" viewBox="0 0 14 14" fill="none" xmlns="http://www.w3.org/2000/svg">
<g>
<path d="M13 7.00002H10.3333M11.6667 8.33335L11.6667 5.66669" stroke="white" stroke-width="1.5" stroke-linecap="round"/>
<path d="M1 11.741C1 10.1323 2.13155 8.76197 3.66936 8.50843L3.80788 8.4856C5.03928 8.28258 6.29405 8.28258 7.52545 8.4856L7.66397 8.50843C9.20178 8.76197 10.3333 10.1323 10.3333 11.741C10.3333 12.4363 9.78768 13 9.11458 13H2.21875C1.54565 13 1 12.4363 1 11.741Z" stroke="white" stroke-width="1.5"/>
<path d="M8.3889 3.625C8.3889 5.07475 7.17012 6.25 5.66668 6.25C4.16324 6.25 2.94446 5.07475 2.94446 3.625C2.94446 2.17525 4.16324 1 5.66668 1C7.17012 1 8.3889 2.17525 8.3889 3.625Z" stroke="white" stroke-width="1.5"/>
</g>
</svg>
