<svg width="14" height="14" viewBox="0 0 14 14" fill="none" xmlns="http://www.w3.org/2000/svg">
<path d="M12.5 3.5H13V3V2.5C13 2.0124 12.8443 1.58884 12.4698 1.313C12.1287 1.06182 11.6906 1 11.2778 1H2.72222C2.30939 1 1.87133 1.06182 1.53024 1.313C1.15567 1.58884 1 2.0124 1 2.5V3V3.5H1.5H12.5ZM1.5 4H1V4.5V11.2778C1 11.8402 1.28355 12.2851 1.66974 12.5738C2.0478 12.8564 2.53263 13 3.00698 13H11.2778C11.7597 13 12.2031 12.8506 12.5268 12.5268C12.8506 12.2031 13 11.7597 13 11.2778V4.5V4H12.5H1.5ZM0.5 2.52778C0.5 1.41483 1.41483 0.5 2.52778 0.5H11.4722C12.5852 0.5 13.5 1.41483 13.5 2.52778V11.4722C13.5 12.5852 12.5852 13.5 11.4722 13.5H2.52778C1.41483 13.5 0.5 12.5852 0.5 11.4722V2.52778ZM3.36053 6.47164C3.44909 6.38309 3.5692 6.33333 3.69444 6.33333C3.81969 6.33333 3.9398 6.38309 4.02836 6.47164C4.11692 6.5602 4.16667 6.68032 4.16667 6.80556C4.16667 6.9308 4.11692 7.05091 4.02836 7.13947C3.9398 7.22803 3.81969 7.27778 3.69444 7.27778C3.5692 7.27778 3.44909 7.22803 3.36053 7.13947C3.27197 7.05091 3.22222 6.9308 3.22222 6.80556C3.22222 6.68031 3.27197 6.5602 3.36053 6.47164ZM6.66609 6.47164C6.75465 6.38309 6.87476 6.33333 7 6.33333C7.12524 6.33333 7.24535 6.38309 7.33391 6.47164C7.42247 6.5602 7.47222 6.68031 7.47222 6.80556C7.47222 6.9308 7.42247 7.05091 7.33391 7.13947C7.24535 7.22803 7.12524 7.27778 7 7.27778C6.87476 7.27778 6.75465 7.22803 6.66609 7.13947C6.57753 7.05091 6.52778 6.9308 6.52778 6.80556C6.52778 6.68032 6.57753 6.5602 6.66609 6.47164ZM9.97164 6.47164C10.0602 6.38309 10.1803 6.33333 10.3056 6.33333C10.4308 6.33333 10.5509 6.38309 10.6395 6.47164C10.728 6.5602 10.7778 6.68031 10.7778 6.80556C10.7778 6.9308 10.728 7.05091 10.6395 7.13947C10.5509 7.22803 10.4308 7.27778 10.3056 7.27778C10.1803 7.27778 10.0602 7.22803 9.97164 7.13947C9.88309 7.05091 9.83333 6.9308 9.83333 6.80556C9.83333 6.68031 9.88309 6.5602 9.97164 6.47164ZM3.36053 9.97164C3.44909 9.88309 3.5692 9.83333 3.69444 9.83333C3.81969 9.83333 3.9398 9.88309 4.02836 9.97164C4.11692 10.0602 4.16667 10.1803 4.16667 10.3056C4.16667 10.4308 4.11691 10.5509 4.02836 10.6395C3.9398 10.728 3.81969 10.7778 3.69444 10.7778C3.5692 10.7778 3.44909 10.728 3.36053 10.6395C3.27197 10.5509 3.22222 10.4308 3.22222 10.3056C3.22222 10.1803 3.27197 10.0602 3.36053 9.97164ZM6.66609 9.97164C6.75465 9.88309 6.87476 9.83333 7 9.83333C7.12524 9.83333 7.24535 9.88309 7.33391 9.97164C7.42247 10.0602 7.47222 10.1803 7.47222 10.3056C7.47222 10.4308 7.42247 10.5509 7.33391 10.6395C7.24535 10.728 7.12524 10.7778 7 10.7778C6.87476 10.7778 6.75465 10.728 6.66609 10.6395C6.57753 10.5509 6.52778 10.4308 6.52778 10.3056C6.52778 10.1803 6.57753 10.0602 6.66609 9.97164Z" stroke="#D6CBE2"/>
</svg>
