<svg width="13" height="14" viewBox="0 0 13 14" fill="none" xmlns="http://www.w3.org/2000/svg">
<path fill-rule="evenodd" clip-rule="evenodd" d="M10.2275 9.59501C10.2576 9.61776 10.2868 9.64294 10.3145 9.67057L12.752 12.1081C12.8296 12.183 12.8915 12.2727 12.934 12.3718C12.9766 12.4709 12.999 12.5776 13 12.6854C13.0009 12.7933 12.9804 12.9003 12.9395 13.0002C12.8986 13.1 12.8383 13.1907 12.762 13.267C12.6857 13.3433 12.595 13.4036 12.4952 13.4445C12.3953 13.4853 12.2883 13.5059 12.1804 13.505C12.0726 13.504 11.9659 13.4816 11.8668 13.439C11.7677 13.3964 11.678 13.3345 11.6031 13.2569L9.16558 10.8194C9.13839 10.7923 9.11314 10.7632 9.09002 10.7325C7.93912 11.5957 6.50386 11.9906 5.07338 11.8378C3.64289 11.685 2.32346 10.9958 1.38087 9.90897C0.438275 8.82215 -0.0574365 7.41851 -0.006413 5.98079C0.0446105 4.54306 0.638577 3.17809 1.65584 2.16083C2.6731 1.14357 4.03807 0.5496 5.4758 0.498577C6.91352 0.447553 8.31716 0.943264 9.40398 1.88586C10.4908 2.82845 11.18 4.14788 11.3328 5.57837C11.4857 7.00885 11.0907 8.44411 10.2275 9.59501ZM5.67751 10.245C6.75496 10.245 7.78827 9.81699 8.55014 9.05513C9.31201 8.29326 9.74002 7.25995 9.74002 6.1825C9.74002 5.10506 9.31201 4.07175 8.55014 3.30988C7.78827 2.54801 6.75496 2.12 5.67751 2.12C4.60007 2.12 3.56676 2.54801 2.80489 3.30988C2.04302 4.07175 1.61501 5.10506 1.61501 6.1825C1.61501 7.25995 2.04302 8.29326 2.80489 9.05513C3.56676 9.81699 4.60007 10.245 5.67751 10.245Z" fill="#D6CBE2"/>
</svg>
