<svg width="14" height="16" viewBox="0 0 14 16" fill="none" xmlns="http://www.w3.org/2000/svg">
<g>
<path d="M9.90654 13.8235L10.042 13.7264C10.4657 13.4226 10.6776 13.2706 10.8671 13.1077C11.8971 12.2225 12.5888 10.9885 12.8191 9.62598C12.8614 9.37522 12.8835 9.10994 12.9275 8.5794L12.9503 8.30507C13.0232 7.4269 13.0159 6.54361 12.9286 5.66685L12.9015 5.39553C12.7487 3.86121 11.8404 2.51644 10.4983 1.83738C8.29161 0.720874 5.70839 0.720874 3.50169 1.83738C2.15956 2.51644 1.25128 3.86121 1.09845 5.39553L1.07143 5.66685C0.984097 6.54361 0.97683 7.4269 1.04972 8.30507L1.07249 8.5794C1.11653 9.10994 1.13855 9.37522 1.18092 9.62598C1.41116 10.9885 2.10292 12.2225 3.13285 13.1077C3.32239 13.2706 3.53433 13.4226 3.95805 13.7264L4.09346 13.8235C4.66955 14.2366 4.95762 14.4432 5.24631 14.5868C6.35447 15.1377 7.64553 15.1377 8.75369 14.5868C9.04238 14.4432 9.33045 14.2367 9.90654 13.8235Z" stroke="white" stroke-width="1.5"/>
<path d="M4.82291 7.8021L6.40624 9.38544L9.17707 6.41669" stroke="white" stroke-width="1.5" stroke-linecap="round" stroke-linejoin="round"/>
</g>
</svg>
