<svg width="14" height="19" viewBox="0 0 14 19" fill="none" xmlns="http://www.w3.org/2000/svg">
<path d="M0 16.72H14V19H0V16.72Z" fill="#D6CBE2"/>
<path d="M5.64095 12.8102V5.17819C5.64095 5.17819 3.6021 7.65608 2.93926 8.22031C2.27642 8.78454 0.847125 7.52269 1.33939 6.67005C1.64216 6.14565 3.2952 3.64443 4.38675 2.2717C5.4783 0.898964 5.8342 0.624404 6.28508 0.235452C6.73595 -0.153499 7.4478 0.00658673 7.75629 0.235409L7.76852 0.244473C8.07639 0.472719 8.51675 0.799185 9.65465 2.2717C10.8123 3.76972 12.1189 5.7509 12.7031 6.67005C13.2872 7.5892 11.6963 8.69302 11.0862 8.22031C10.476 7.7476 8.40897 5.17819 8.40897 5.17819V12.8102C8.40897 13.8258 5.64095 13.8079 5.64095 12.8102Z" fill="#D6CBE2"/>
</svg>
